<svg width="300" height="100" viewBox="0 0 300 100" fill="none" xmlns="http://www.w3.org/2000/svg">
<g filter="url(#filter0_b)">
<rect width="300" height="100" rx="20" fill="white" fill-opacity="0.8"/>
</g>
<path d="M123.128 41.504V44H111.752V41.72L117.512 35.528C118.184 34.792 118.672 34.12 118.976 33.512C119.296 32.888 119.456 32.272 119.456 31.664C119.456 30.896 119.232 30.32 118.784 29.936C118.352 29.536 117.712 29.336 116.864 29.336C115.344 29.336 113.816 29.92 112.28 31.088L111.248 28.832C111.92 28.24 112.776 27.768 113.816 27.416C114.872 27.048 115.928 26.864 116.984 26.864C118.68 26.864 120.024 27.28 121.016 28.112C122.008 28.944 122.504 30.064 122.504 31.472C122.504 32.448 122.296 33.368 121.88 34.232C121.464 35.08 120.76 36.032 119.768 37.088L115.616 41.504H123.128ZM133.006 33.176C134.062 33.176 134.99 33.408 135.79 33.872C136.606 34.32 137.23 34.952 137.662 35.768C138.11 36.584 138.334 37.52 138.334 38.576C138.334 39.696 138.078 40.68 137.566 41.528C137.054 42.376 136.326 43.032 135.382 43.496C134.454 43.96 133.358 44.192 132.094 44.192C131.038 44.192 129.99 44.016 128.95 43.664C127.926 43.296 127.078 42.816 126.406 42.224L127.438 39.968C128.974 41.136 130.542 41.72 132.142 41.72C133.198 41.72 134.006 41.456 134.566 40.928C135.126 40.4 135.406 39.648 135.406 38.672C135.406 37.728 135.118 36.984 134.542 36.44C133.982 35.88 133.214 35.6 132.238 35.6C131.582 35.6 130.958 35.728 130.366 35.984C129.79 36.224 129.27 36.576 128.806 37.04H126.958V27.08H137.566V29.48H129.982V34.04C130.798 33.464 131.806 33.176 133.006 33.176ZM146.965 44.216C144.965 44.216 143.437 43.48 142.381 42.008C141.325 40.52 140.797 38.36 140.797 35.528C140.797 32.728 141.325 30.592 142.381 29.12C143.437 27.648 144.965 26.912 146.965 26.912C148.965 26.912 150.493 27.648 151.549 29.12C152.605 30.592 153.133 32.728 153.133 35.528C153.133 38.344 152.605 40.496 151.549 41.984C150.493 43.472 148.965 44.216 146.965 44.216ZM146.965 41.792C148.053 41.792 148.845 41.296 149.341 40.304C149.837 39.296 150.085 37.704 150.085 35.528C150.085 33.368 149.837 31.8 149.341 30.824C148.845 29.832 148.053 29.336 146.965 29.336C145.877 29.336 145.085 29.832 144.589 30.824C144.093 31.8 143.845 33.368 143.845 35.528C143.845 37.704 144.093 39.296 144.589 40.304C145.085 41.296 145.877 41.792 146.965 41.792ZM167.955 44H164.235L159.195 38.648V44H156.195V27.08H159.195V37.4L163.923 32.288H167.571L162.291 37.904L167.955 44Z" fill="#595959"/>

<svg width="390" height="150" viewBox="0 0 300 100" xmlns="http://www.w3.org/2000/svg">
   
    <!-- Text Element -->
    <text x="50%" y="50%" text-anchor="middle" fill="#595959" font-size="18" font-family="Arial" dy=".3em">
        SATISFACTION
    </text>
</svg>
<rect x="28" y="25" width="50" height="50" rx="8" fill="#23BDEE"/>
<g clip-path="url(#clip0)">
<path d="M46.125 36.25C45.5826 36.25 45.1429 36.6897 45.1429 37.2322V39.1964H47.1071V37.2322C47.1071 36.6897 46.6674 36.25 46.125 36.25Z" fill="white"/>
<path d="M59.875 36.25C59.3325 36.25 58.8928 36.6897 58.8928 37.2322V39.1964H60.8571V37.2322C60.8571 36.6897 60.4174 36.25 59.875 36.25Z" fill="white"/>
<path d="M63.8036 39.1964H60.8571V43.125C60.8571 43.6675 60.4174 44.1072 59.875 44.1072C59.3325 44.1072 58.8928 43.6675 58.8928 43.125V39.1964H47.1071V43.125C47.1071 43.6675 46.6674 44.1072 46.125 44.1072C45.5825 44.1072 45.1428 43.6675 45.1428 43.125V39.1964H42.1964C40.5692 39.1964 39.25 40.5156 39.25 42.1429V60.8036C39.25 62.4309 40.5692 63.75 42.1964 63.75H63.8036C65.4308 63.75 66.75 62.4309 66.75 60.8036V42.1429C66.75 40.5156 65.4308 39.1964 63.8036 39.1964ZM64.7857 60.8036C64.7857 61.346 64.346 61.7857 63.8035 61.7857H42.1964C41.654 61.7857 41.2143 61.346 41.2143 60.8036V48.0357H64.7857V60.8036Z" fill="white"/>
<path d="M47.1071 50H45.1428C44.6004 50 44.1607 50.4397 44.1607 50.9822C44.1607 51.5246 44.6004 51.9643 45.1428 51.9643H47.1071C47.6495 51.9643 48.0893 51.5246 48.0893 50.9822C48.0893 50.4397 47.6495 50 47.1071 50Z" fill="white"/>
<path d="M53.9821 50H52.0179C51.4754 50 51.0357 50.4397 51.0357 50.9822C51.0357 51.5246 51.4754 51.9643 52.0179 51.9643H53.9821C54.5246 51.9643 54.9643 51.5246 54.9643 50.9822C54.9643 50.4397 54.5246 50 53.9821 50Z" fill="white"/>
<path d="M60.8572 50H58.8929C58.3505 50 57.9107 50.4397 57.9107 50.9822C57.9107 51.5246 58.3505 51.9643 58.8929 51.9643H60.8572C61.3996 51.9643 61.8393 51.5246 61.8393 50.9822C61.8393 50.4397 61.3995 50 60.8572 50Z" fill="white"/>
<path d="M47.1071 53.9286H45.1428C44.6004 53.9286 44.1607 54.3683 44.1607 54.9107C44.1607 55.4532 44.6004 55.8929 45.1428 55.8929H47.1071C47.6495 55.8929 48.0893 55.4532 48.0893 54.9107C48.0893 54.3683 47.6495 53.9286 47.1071 53.9286Z" fill="white"/>
<path d="M53.9821 53.9286H52.0179C51.4754 53.9286 51.0357 54.3683 51.0357 54.9107C51.0357 55.4532 51.4754 55.8929 52.0179 55.8929H53.9821C54.5246 55.8929 54.9643 55.4532 54.9643 54.9107C54.9643 54.3683 54.5246 53.9286 53.9821 53.9286Z" fill="white"/>
<path d="M60.8572 53.9286H58.8929C58.3505 53.9286 57.9107 54.3683 57.9107 54.9107C57.9107 55.4532 58.3505 55.8929 58.8929 55.8929H60.8572C61.3996 55.8929 61.8393 55.4532 61.8393 54.9107C61.8393 54.3683 61.3995 53.9286 60.8572 53.9286Z" fill="white"/>
<path d="M47.1071 57.8571H45.1428C44.6004 57.8571 44.1607 58.2968 44.1607 58.8393C44.1607 59.3817 44.6004 59.8214 45.1428 59.8214H47.1071C47.6495 59.8214 48.0893 59.3817 48.0893 58.8392C48.0893 58.2968 47.6495 57.8571 47.1071 57.8571Z" fill="white"/>
<path d="M53.9821 57.8571H52.0179C51.4754 57.8571 51.0357 58.2968 51.0357 58.8393C51.0357 59.3817 51.4754 59.8214 52.0179 59.8214H53.9821C54.5246 59.8214 54.9643 59.3817 54.9643 58.8393C54.9643 58.2968 54.5246 57.8571 53.9821 57.8571Z" fill="white"/>
<path d="M60.8572 57.8571H58.8929C58.3505 57.8571 57.9107 58.2968 57.9107 58.8393C57.9107 59.3817 58.3505 59.8214 58.8929 59.8214H60.8572C61.3996 59.8214 61.8393 59.3817 61.8393 58.8393C61.8393 58.2968 61.3995 57.8571 60.8572 57.8571Z" fill="white"/>
</g>
<defs>
<filter id="filter0_b" x="-20" y="-20" width="340" height="140" filterUnits="userSpaceOnUse" color-interpolation-filters="sRGB">
<feFlood flood-opacity="0" result="BackgroundImageFix"/>
<feGaussianBlur in="BackgroundImage" stdDeviation="10"/>
<feComposite in2="SourceAlpha" operator="in" result="effect1_backgroundBlur"/>
<feBlend mode="normal" in="SourceGraphic" in2="effect1_backgroundBlur" result="shape"/>
</filter>
<clipPath id="clip0">
<rect width="27.5" height="27.5" fill="white" transform="translate(39.25 36.25)"/>
</clipPath>
</defs>
</svg>
